{
  "accessors": [
    {
      "bufferView": 2,
      "componentType": 5126,
      "count": 2507,
      "max": [
        4.6187729835510254,
        20.069671630859375,
        18.522674560546875
      ],
      "min": [
        -0.73947310447692871,
        -8.2716093063354492,
        6.0085277557373047
      ],
      "type": "VEC3"
    },
    {
      "bufferView": 2,
      "byteOffset": 30084,
      "componentType": 5126,
      "count": 2507,
      "max": [
        1,
        1,
        1
      ],
      "min": [
        -1,
        -1,
        -1
      ],
      "type": "VEC3"
    },
    {
      "bufferView": 3,
      "componentType": 5126,
      "count": 2507,
      "max": [
        1,
        1,
        1,
        1
      ],
      "min": [
        -1,
        -0.99999994039535522,
        -1,
        -1
      ],
      "type": "VEC4"
    },
    {
      "bufferView": 1,
      "componentType": 5126,
      "count": 2507,
      "max": [
        0.98504716157913208,
        0.98679709434509277
      ],
      "min": [
        0.016895458102226257,
        0.015351682901382446
      ],
      "type": "VEC2"
    },
    {
      "bufferView": 0,
      "componentType": 5125,
      "count": 8661,
      "max": [
        2506
      ],
      "min": [
        0
      ],
      "type": "SCALAR"
    },
    {
      "bufferView": 2,
      "byteOffset": 60168,
      "componentType": 5126,
      "count": 3414,
      "max": [
        5.6085906028747559,
        20.966510772705078,
        18.742267608642578
      ],
      "min": [
        -0.69497346878051758,
        -8.4912014007568359,
        6.0085277557373047
      ],
      "type": "VEC3"
    },
    {
      "bufferView": 2,
      "byteOffset": 101136,
      "componentType": 5126,
      "count": 3414,
      "max": [
        1,
        1,
        1
      ],
      "min": [
        -1,
        -1,
        -1
      ],
      "type": "VEC3"
    },
    {
      "bufferView": 3,
      "byteOffset": 40112,
      "componentType": 5126,
      "count": 3414,
      "max": [
        1,
        1,
        1,
        1
      ],
      "min": [
        -1,
        -1,
        -1,
        1
      ],
      "type": "VEC4"
    },
    {
      "bufferView": 1,
      "byteOffset": 20056,
      "componentType": 5126,
      "count": 3414,
      "max": [
        0.98636388778686523,
        0.98533797264099121
      ],
      "min": [
        0.020364314317703247,
        0.01712198369204998
      ],
      "type": "VEC2"
    },
    {
      "bufferView": 0,
      "byteOffset": 34644,
      "componentType": 5125,
      "count": 14235,
      "max": [
        3413
      ],
      "min": [
        0
      ],
      "type": "SCALAR"
    },
    {
      "bufferView": 2,
      "byteOffset": 142104,
      "componentType": 5126,
      "count": 1670,
      "max": [
        4.2792692184448242,
        41.380420684814453,
        6.8027291297912598
      ],
      "min": [
        -5.6085901260375977,
        -43.765792846679688,
        -18.182645797729492
      ],
      "type": "VEC3"
    },
    {
      "bufferView": 2,
      "byteOffset": 162144,
      "componentType": 5126,
      "count": 1670,
      "max": [
        1,
        1,
        0.99998503923416138
      ],
      "min": [
        -1,
        -0.99999904632568359,
        -1
      ],
      "type": "VEC3"
    },
    {
      "bufferView": 3,
      "byteOffset": 94736,
      "componentType": 5126,
      "count": 1670,
      "max": [
        1,
        1,
        1,
        1
      ],
      "min": [
        -1,
        -1,
        -1,
        -1
      ],
      "type": "VEC4"
    },
    {
      "bufferView": 1,
      "byteOffset": 47368,
      "componentType": 5126,
      "count": 1670,
      "max": [
        0.98022127151489258,
        0.98432987928390503
      ],
      "min": [
        0.0093571208417415619,
        0.013208579272031784
      ],
      "type": "VEC2"
    },
    {
      "bufferView": 0,
      "byteOffset": 91584,
      "componentType": 5125,
      "count": 6555,
      "max": [
        1669
      ],
      "min": [
        0
      ],
      "type": "SCALAR"
    },
    {
      "bufferView": 2,
      "byteOffset": 182184,
      "componentType": 5126,
      "count": 3465,
      "max": [
        5.2877216339111328,
        43.772384643554688,
        6.8006682395935059
      ],
      "min": [
        -5.6085901260375977,
        -43.772384643554688,
        -18.742267608642578
      ],
      "type": "VEC3"
    },
    {
      "bufferView": 2,
      "byteOffset": 223764,
      "componentType": 5126,
      "count": 3465,
      "max": [
        1,
        1,
        1
      ],
      "min": [
        -1,
        -1,
        -1
      ],
      "type": "VEC3"
    },
    {
      "bufferView": 3,
      "byteOffset": 121456,
      "componentType": 5126,
      "count": 3465,
      "max": [
        1,
        1,
        1,
        1
      ],
      "min": [
        -1,
        -1,
        -1,
        -1
      ],
      "type": "VEC4"
    },
    {
      "bufferView": 1,
      "byteOffset": 60728,
      "componentType": 5126,
      "count": 3465,
      "max": [
        0.98917317390441895,
        0.98512238264083862
      ],
      "min": [
        0.0054873116314411163,
        0.0077037177979946136
      ],
      "type": "VEC2"
    },
    {
      "bufferView": 0,
      "byteOffset": 117804,
      "componentType": 5125,
      "count": 9933,
      "max": [
        3464
      ],
      "min": [
        0
      ],
      "type": "SCALAR"
    },
    {
      "bufferView": 2,
      "byteOffset": 265344,
      "componentType": 5126,
      "count": 6012,
      "max": [
        5.3761320114135742,
        43.772384643554688,
        6.860206127166748
      ],
      "min": [
        -5.6085901260375977,
        -40.544342041015625,
        -18.742267608642578
      ],
      "type": "VEC3"
    },
    {
      "bufferView": 2,
      "byteOffset": 337488,
      "componentType": 5126,
      "count": 6012,
      "max": [
        1,
        1,
        1
      ],
      "min": [
        -1,
        -1,
        -1
      ],
      "type": "VEC3"
    },
    {
      "bufferView": 3,
      "byteOffset": 176896,
      "componentType": 5126,
      "count": 6012,
      "max": [
        1,
        1,
        1,
        1
      ],
      "min": [
        -1,
        -1,
        -1,
        -1
      ],
      "type": "VEC4"
    },
    {
      "bufferView": 1,
      "byteOffset": 88448,
      "componentType": 5126,
      "count": 6012,
      "max": [
        0.99102133512496948,
        0.99393784999847412
      ],
      "min": [
        0.0086562782526016235,
        0.0079000983387231827
      ],
      "type": "VEC2"
    },
    {
      "bufferView": 0,
      "byteOffset": 157536,
      "componentType": 5125,
      "count": 22284,
      "max": [
        6011
      ],
      "min": [
        0
      ],
      "type": "SCALAR"
    },
    {
      "bufferView": 2,
      "byteOffset": 409632,
      "componentType": 5126,
      "count": 843,
      "max": [
        3.7832489013671875,
        -8.6224546432495117,
        -0.24832451343536377
      ],
      "min": [
        0.038626313209533691,
        -21.762962341308594,
        -5.5434465408325195
      ],
      "type": "VEC3"
    },
    {
      "bufferView": 2,
      "byteOffset": 419748,
      "componentType": 5126,
      "count": 843,
      "max": [
        1,
        1,
        0.99732434749603271
      ],
      "min": [
        -1,
        -1,
        -0.99998599290847778
      ],
      "type": "VEC3"
    },
    {
      "bufferView": 3,
      "byteOffset": 273088,
      "componentType": 5126,
      "count": 843,
      "max": [
        1,
        1,
        0.99600762128829956,
        1
      ],
      "min": [
        -0.99670380353927612,
        -1,
        -0.99023950099945068,
        -1
      ],
      "type": "VEC4"
    },
    {
      "bufferView": 1,
      "byteOffset": 136544,
      "componentType": 5126,
      "count": 843,
      "max": [
        0.99236232042312622,
        0.98656600713729858
      ],
      "min": [
        0.013004687614738941,
        0.017916973680257797
      ],
      "type": "VEC2"
    },
    {
      "bufferView": 0,
      "byteOffset": 246672,
      "componentType": 5125,
      "count": 3312,
      "max": [
        842
      ],
      "min": [
        0
      ],
      "type": "SCALAR"
    }
  ],
  "asset": {
    "extras": {
      "author": "Dries Deryckere (https://sketchfab.com/deryckeredries)",
      "license": "CC-BY-4.0 (http://creativecommons.org/licenses/by/4.0/)",
      "source": "https://sketchfab.com/3d-models/gun-a66b52ede9af472a9a9e0946154d603c",
      "title": "Gun"
    },
    "generator": "Sketchfab-5.38.0",
    "version": "2.0"
  },
  "bufferViews": [
    {
      "buffer": 0,
      "byteLength": 259920,
      "byteOffset": 0,
      "name": "floatBufferViews",
      "target": 34963
    },
    {
      "buffer": 0,
      "byteLength": 143288,
      "byteOffset": 259920,
      "byteStride": 8,
      "name": "floatBufferViews",
      "target": 34962
    },
    {
      "buffer": 0,
      "byteLength": 429864,
      "byteOffset": 403208,
      "byteStride": 12,
      "name": "floatBufferViews",
      "target": 34962
    },
    {
      "buffer": 0,
      "byteLength": 286576,
      "byteOffset": 833072,
      "byteStride": 16,
      "name": "floatBufferViews",
      "target": 34962
    }
  ],
  "buffers": [
    {
      "byteLength": 1119648,
      "uri": "scene.bin"
    }
  ],
  "images": [
    {
      "uri": "textures/Material__180_metallicRoughness.png"
    },
    {
      "uri": "textures/Material__180_normal.jpeg"
    },
    {
      "uri": "textures/Material__180_baseColor.png"
    },
    {
      "uri": "textures/Material__184_metallicRoughness.png"
    },
    {
      "uri": "textures/Material__184_normal.jpeg"
    },
    {
      "uri": "textures/Material__184_baseColor.png"
    },
    {
      "uri": "textures/Material__183_metallicRoughness.png"
    },
    {
      "uri": "textures/Material__183_normal.jpeg"
    },
    {
      "uri": "textures/Material__183_baseColor.png"
    }
  ],
  "materials": [
    {
      "doubleSided": false,
      "emissiveFactor": [
        0,
        0,
        0
      ],
      "name": "Material__180",
      "normalTexture": {
        "index": 1,
        "scale": 1,
        "texCoord": 0
      },
      "occlusionTexture": {
        "index": 0,
        "strength": 1,
        "texCoord": 0
      },
      "pbrMetallicRoughness": {
        "baseColorFactor": [
          1,
          1,
          1,
          1
        ],
        "baseColorTexture": {
          "index": 2,
          "texCoord": 0
        },
        "metallicFactor": 1,
        "metallicRoughnessTexture": {
          "index": 0,
          "texCoord": 0
        },
        "roughnessFactor": 0.51391006100000003
      }
    },
    {
      "doubleSided": false,
      "emissiveFactor": [
        0,
        0,
        0
      ],
      "name": "Material__183",
      "normalTexture": {
        "index": 7,
        "scale": 1,
        "texCoord": 0
      },
      "occlusionTexture": {
        "index": 6,
        "strength": 1,
        "texCoord": 0
      },
      "pbrMetallicRoughness": {
        "baseColorFactor": [
          1,
          1,
          1,
          1
        ],
        "baseColorTexture": {
          "index": 8,
          "texCoord": 0
        },
        "metallicFactor": 1,
        "metallicRoughnessTexture": {
          "index": 6,
          "texCoord": 0
        },
        "roughnessFactor": 0.82488567069999996
      }
    },
    {
      "doubleSided": false,
      "emissiveFactor": [
        0,
        0,
        0
      ],
      "name": "Material__184",
      "normalTexture": {
        "index": 4,
        "scale": 1,
        "texCoord": 0
      },
      "occlusionTexture": {
        "index": 3,
        "strength": 1,
        "texCoord": 0
      },
      "pbrMetallicRoughness": {
        "baseColorFactor": [
          1,
          1,
          1,
          1
        ],
        "baseColorTexture": {
          "index": 5,
          "texCoord": 0
        },
        "metallicFactor": 1,
        "metallicRoughnessTexture": {
          "index": 3,
          "texCoord": 0
        },
        "roughnessFactor": 0.57488567069999996
      }
    }
  ],
  "meshes": [
    {
      "primitives": [
        {
          "attributes": {
            "NORMAL": 1,
            "POSITION": 0,
            "TANGENT": 2,
            "TEXCOORD_0": 3
          },
          "indices": 4,
          "material": 0,
          "mode": 4
        }
      ]
    },
    {
      "primitives": [
        {
          "attributes": {
            "NORMAL": 6,
            "POSITION": 5,
            "TANGENT": 7,
            "TEXCOORD_0": 8
          },
          "indices": 9,
          "material": 0,
          "mode": 4
        }
      ]
    },
    {
      "primitives": [
        {
          "attributes": {
            "NORMAL": 11,
            "POSITION": 10,
            "TANGENT": 12,
            "TEXCOORD_0": 13
          },
          "indices": 14,
          "material": 1,
          "mode": 4
        }
      ]
    },
    {
      "primitives": [
        {
          "attributes": {
            "NORMAL": 16,
            "POSITION": 15,
            "TANGENT": 17,
            "TEXCOORD_0": 18
          },
          "indices": 19,
          "material": 1,
          "mode": 4
        }
      ]
    },
    {
      "primitives": [
        {
          "attributes": {
            "NORMAL": 21,
            "POSITION": 20,
            "TANGENT": 22,
            "TEXCOORD_0": 23
          },
          "indices": 24,
          "material": 1,
          "mode": 4
        }
      ]
    },
    {
      "primitives": [
        {
          "attributes": {
            "NORMAL": 26,
            "POSITION": 25,
            "TANGENT": 27,
            "TEXCOORD_0": 28
          },
          "indices": 29,
          "material": 2,
          "mode": 4
        }
      ]
    }
  ],
  "nodes": [
    {
      "children": [
        1
      ],
      "name": "RootNode (gltf orientation matrix)",
      "rotation": [
        -0.70710678118654746,
        -0,
        -0,
        0.70710678118654757
      ]
    },
    {
      "children": [
        2
      ],
      "matrix": [
        0.85197889804840088,
        0,
        -0.52357608079910278,
        0,
        0.15696665644645691,
        0.9540029764175415,
        0.25542092323303223,
        0,
        0.49949312210083008,
        -0.29979720711708069,
        0.8127903938293457,
        0,
        3.4674999369599391e-06,
        -4.138999884162331e-06,
        -1.4711699805047829e-05,
        1
      ],
      "name": "RootNode (model correction matrix)"
    },
    {
      "children": [
        3,
        4,
        5,
        6,
        7,
        8
      ],
      "name": "Gun.obj.cleaner"
    },
    {
      "mesh": 0,
      "name": ""
    },
    {
      "mesh": 1,
      "name": ""
    },
    {
      "mesh": 2,
      "name": ""
    },
    {
      "mesh": 3,
      "name": ""
    },
    {
      "mesh": 4,
      "name": ""
    },
    {
      "mesh": 5,
      "name": ""
    }
  ],
  "samplers": [
    {
      "magFilter": 9729,
      "minFilter": 9987,
      "wrapS": 10497,
      "wrapT": 10497
    }
  ],
  "scene": 0,
  "scenes": [
    {
      "name": "OSG_Scene",
      "nodes": [
        0
      ]
    }
  ],
  "textures": [
    {
      "sampler": 0,
      "source": 0
    },
    {
      "sampler": 0,
      "source": 1
    },
    {
      "sampler": 0,
      "source": 2
    },
    {
      "sampler": 0,
      "source": 3
    },
    {
      "sampler": 0,
      "source": 4
    },
    {
      "sampler": 0,
      "source": 5
    },
    {
      "sampler": 0,
      "source": 6
    },
    {
      "sampler": 0,
      "source": 7
    },
    {
      "sampler": 0,
      "source": 8
    }
  ]
}

